# xmcd CD database file
# Copyright (C) 1997 Ti Kan
# 
# Track frame offsets:
#     150
#     18080
#     36642
#     54707
#     72952
#     92154
#     106140
#     125437
#     142845
#     164632
#     185095
#     199397
# 
# Disc length: 2850 seconds
# 
# Revision: 1
# Processed by: cddbd v1.4b41PL1 Copyright (c) Steve Scherf et al.
# Submitted via: DiscPlay 4.0.4
# 
DISCID=b00b200c
DTITLE=Jo o De Almeida Neto - Jo o De Almeida Neto
DYEAR=1900
DGENRE=
TTITLE0=Provinciando
TTITLE1=Paisagem Urbana
TTITLE2=Cantor Da Fronteira
TTITLE3=Crioulo Da Tia Maruca
TTITLE4=Chuva De Ver o
TTITLE5=Vozes Rurais
TTITLE6=Nova Trilha
TTITLE7=Limites
TTITLE8=Segredos Do Meu Cambicho
TTITLE9=Missal Das Reses
TTITLE10=Defini  o Do Grito
TTITLE11=Tango Do Meretr cio
EXTD=
EXTT0=(M rio Barros-M rio El u Silva)
EXTT1=(Jo o Almeida Neto)
EXTT2=(Jo o Almeida Neto-Gilberto Carvalho)
EXTT3=(Jo o Almeida Neto-Marco Aur lio Campos)
EXTT4=(Jo o Almeida Neto)
EXTT5=(Jo o Almeida Neto)
EXTT6=(Jo o Almeida Neto-Nilo Bairros De Brum)
EXTT7=(Talo Pereira-Cao Guimar es)
EXTT8=(Jos  Athan sio Borges Pinto-Dorot o Fagundes)
EXTT9=(Airton Pimentel)
EXTT10=(Gildo De Freitas)
EXTT11=(Luiz Bastos-Mauro Ferreira)
PLAYORDER=
